<svg width="18" height="12" viewBox="0 0 18 12" fill="none" xmlns="http://www.w3.org/2000/svg">
<path d="M6.74998 12C6.65148 12.0002 6.55393 11.9808 6.46293 11.9431C6.37192 11.9055 6.28927 11.8501 6.21971 11.7804L0.969711 6.53082C0.900063 6.46118 0.844812 6.37851 0.807114 6.28752C0.769416 6.19653 0.750008 6.09901 0.75 6.00052C0.749992 5.90203 0.769382 5.8045 0.807065 5.7135C0.844747 5.62251 0.899983 5.53983 0.96962 5.47018C1.03926 5.40053 1.12193 5.34528 1.21292 5.30758C1.30391 5.26988 1.40143 5.25048 1.49992 5.25047C1.59841 5.25046 1.69594 5.26985 1.78693 5.30753C1.87793 5.34521 1.96061 5.40045 2.03026 5.47009L6.74998 10.1894L16.7196 0.220133C16.8603 0.079642 17.051 0.000759668 17.2498 0.000824014C17.4487 0.00088836 17.6393 0.0798943 17.7799 0.220476C17.9205 0.361058 17.9995 0.551712 17.9996 0.750534C17.9997 0.949355 17.9208 1.14007 17.7803 1.28077L7.28035 11.7804C7.21076 11.8501 7.12809 11.9054 7.03707 11.9431C6.94606 11.9808 6.8485 12.0002 6.74998 12Z" fill="white"/>
</svg>
