<svg width="100" height="100" viewBox="0 0 100 100" fill="none" xmlns="http://www.w3.org/2000/svg">
<circle cx="50" cy="50" r="50" fill="#E9F7FF"/>
<mask id="mask0_4008_15885" style="mask-type:alpha" maskUnits="userSpaceOnUse" x="0" y="0" width="100" height="100">
<circle cx="50" cy="50" r="50" fill="#C4C4C4"/>
</mask>
<g mask="url(#mask0_4008_15885)">
<path d="M112.691 112.55L69.7674 20.8849L59.2795 38.2479L112.691 112.55Z" fill="#8886EE"/>
<path d="M34.9768 76.8452L113.005 112.332L46.7607 57.3192L34.9768 76.8452Z" fill="#8886EE"/>
<path d="M112.217 111.709L48.4326 58.7567L73.1971 57.6122L112.217 111.709Z" fill="#BDCFFE"/>
<path d="M71.5384 61.8659L71.5201 61.8729L71.5021 61.8807C71.1197 62.0484 70.7027 62.1221 70.2859 62.0958C70.2847 62.0957 70.2835 62.0956 70.2823 62.0955L50.7642 60.6604L50.356 60.6303L50.0989 60.9489L37.8046 76.185L37.8038 76.1861C37.4967 76.5681 37.0887 76.8561 36.6261 77.0174C36.1635 77.1788 35.6648 77.207 35.1867 77.0989C34.7086 76.9908 34.2702 76.7506 33.9215 76.4056C33.5727 76.0606 33.3276 75.6246 33.214 75.1473L32.454 75.3281L33.214 75.1472L28.7101 56.2171L28.6142 55.8139L28.2266 55.6672L9.96313 48.7553C9.52237 48.5806 9.13707 48.2895 8.84838 47.9129C8.56016 47.5369 8.37911 47.0899 8.3244 46.6194C8.27987 46.1338 8.37156 45.6455 8.58915 45.2094C8.80782 44.7712 9.14488 44.4032 9.56205 44.1471L9.56431 44.1457L26.2218 33.8424L26.5725 33.6254L26.5913 33.2135L27.4749 13.8013L27.475 13.7982C27.4954 13.3061 27.654 12.8299 27.9324 12.4241C28.2108 12.0184 28.5978 11.6994 29.049 11.5037C29.5003 11.3079 29.9976 11.2434 30.4841 11.3174C30.9706 11.3914 31.4266 11.6011 31.7998 11.9224L31.7998 11.9225L31.8055 11.9273L46.662 24.4756L46.975 24.7399L47.3704 24.6328L66.2756 19.5121L66.2782 19.5114C66.7502 19.3818 67.2492 19.3872 67.7186 19.5271C68.1857 19.6662 68.6048 19.9329 68.9289 20.2973C69.235 20.6587 69.4377 21.0964 69.5152 21.5637L70.2859 21.4358L69.5152 21.5637C69.5929 22.0318 69.5422 22.5119 69.3686 22.9531C69.368 22.9547 69.3674 22.9563 69.3667 22.9579L61.9346 41.0105L61.7768 41.3937L62.0056 41.7393L72.7486 57.9635L72.7485 57.9635L72.754 57.9715C73.0354 58.3853 73.1927 58.871 73.2072 59.3712C73.2217 59.87 73.0935 60.3624 72.838 60.7906C72.5353 61.2827 72.0784 61.6608 71.5384 61.8659Z" fill="url(#paint0_linear_4008_15885)" stroke="white" stroke-width="1.5625"/>
</g>
<defs>
<linearGradient id="paint0_linear_4008_15885" x1="12.5455" y1="16.5551" x2="79.5332" y2="65.8204" gradientUnits="userSpaceOnUse">
<stop stop-color="#FCEB94"/>
<stop offset="1" stop-color="#F07D12"/>
</linearGradient>
</defs>
</svg>
