<svg width="74" height="118" viewBox="0 0 74 118" fill="none" xmlns="http://www.w3.org/2000/svg">
<path d="M72.2592 34.2919C69.2248 31.7318 64.5744 31.6794 60.6994 33.6633C60.4201 33.8067 60.1322 33.9597 59.8244 34.1275C58.8128 32.7203 56.5142 32.4169 54.5152 32.9463C53.7141 33.1594 52.7573 33.514 51.594 34.0114C51.2722 34.1489 50.9359 34.2967 50.5708 34.4609C50.0869 34.6783 48.4956 35.4105 48.2133 35.5375C46.9014 36.1263 45.5704 36.7363 43.6582 37.622C43.4739 37.7073 43.2808 37.7968 43.0597 37.8992C40.3188 39.1699 40.2159 39.2174 39.205 39.681C36.2701 41.027 32.0974 43.1553 29.1655 44.7973C28.3452 45.2583 26.9661 46.0545 25.1827 47.0936L25.1124 47.1347C24.0738 47.7399 22.9656 48.3884 21.8602 49.037C21.4733 49.2639 21.1145 49.4746 20.7926 49.6637C20.7228 49.7047 20.6706 49.7356 20.6127 49.7696C20.145 49.5188 19.2138 49.0198 18.9035 48.8538C18.1026 48.4253 17.4363 48.0702 16.7921 47.7294C16.5907 47.623 16.3941 47.5192 16.2013 47.4177C14.394 46.4666 12.9085 45.7091 11.6798 45.1199C8.64238 43.6615 7.40485 43.1669 5.77699 42.9284C4.74344 42.7768 3.7595 42.8148 2.7883 43.0628C0.51189 43.6437 -0.326032 46.3475 1.0311 48.6649C1.8368 50.0388 2.8474 51.1643 4.86421 53.1141C4.87858 53.1278 5.46361 53.6925 5.6305 53.8542C5.91885 54.134 6.15365 54.3646 6.37432 54.5858C6.58779 54.7999 6.78296 55.0002 6.96584 55.1931C7.14965 55.388 8.18691 56.4786 8.48615 56.7971C11.3221 59.8145 12.7877 61.8512 13.4752 64.1842C14.563 67.8789 14.8263 71.6091 14.8263 78.6931C14.8263 80.6084 14.8734 85.1925 14.9542 91.6374C14.9638 92.3946 14.9737 93.1711 14.9839 93.9648C15.0185 96.6324 15.0553 110.965 15.0924 113.631C15.1051 114.564 15.1172 115.421 15.1281 116.183C15.1318 116.45 15.135 116.685 15.1381 116.888C15.1408 117.092 15.1408 117.092 15.1415 117.135C15.1452 117.389 15.3518 117.592 15.6051 117.592H55.7812C56.0399 117.592 56.2485 117.38 56.2448 117.122C56.2423 116.942 56.2423 116.942 56.2307 116.132C56.2193 115.346 56.2068 114.469 56.1931 113.524C56.1544 110.826 56.1157 96.5388 56.0796 94.0206L56.0786 93.949C56.0135 89.428 55.9641 86.0047 55.9365 84.1172C55.9043 82.1583 55.8408 80.1054 55.7453 77.7861C55.6718 76.0036 55.6014 74.5199 55.4465 71.407C55.2609 67.6671 55.1841 66.0422 55.1079 64.0683C55.1809 64.0027 55.2625 63.9297 55.352 63.8495C55.6758 63.5591 56.0367 63.2341 56.4252 62.8825C57.5352 61.8777 58.6452 60.8599 59.6818 59.891C59.8074 59.7737 59.9314 59.6576 60.0536 59.5426C61.8833 57.8234 63.2317 56.4885 63.9344 55.6731C64.3848 55.1502 64.8769 54.6057 65.4619 53.9787C65.7352 53.686 66.0219 53.3823 66.3835 53.0017C66.5386 52.8385 67.1637 52.1823 67.3209 52.0171C70.4229 48.7537 71.9887 46.8475 73.2494 44.4985C74.0196 43.0709 73.8968 41.3293 72.9151 40.2551C74.4382 38.389 74.0298 35.7862 72.2592 34.2919Z" fill="#FF9BA5"/>
<path d="M31.8607 68.6582C32.0347 68.6485 32.1615 68.6383 32.4979 68.6088C32.6995 68.5912 32.8043 68.5827 32.9227 68.5741C33.467 68.5354 33.848 68.5444 34.1774 68.6177C34.4273 68.6733 34.6748 68.5159 34.7305 68.266C34.7861 68.0159 34.6287 67.7684 34.3788 67.7127C33.9426 67.6156 33.4834 67.6047 32.8571 67.6492C32.732 67.6583 32.6235 67.6673 32.417 67.6854C32.0911 67.7139 31.9698 67.7236 31.8092 67.7324C31.5535 67.7466 31.3579 67.9654 31.3721 68.2211C31.3862 68.4767 31.605 68.6724 31.8607 68.6582Z" fill="#484882"/>
<path d="M30.4851 51.1228C32.1716 50.7183 34.2466 51.0841 36.2833 52.2901C38.1411 53.3902 39.2243 54.9251 40.0566 57.1222C40.1473 57.3617 40.4147 57.4824 40.6542 57.3916C40.8936 57.301 41.0142 57.0332 40.9235 56.794C40.0235 54.4177 38.823 52.7164 36.7557 51.4923C34.5182 50.1674 32.1983 49.7585 30.2691 50.2212C30.0199 50.281 29.8665 50.5311 29.9263 50.78C29.9861 51.0289 30.2362 51.1824 30.4851 51.1228Z" fill="#484882"/>
<path d="M42.4487 43.1156C47.803 43.1156 53.624 44.9065 58.0943 47.8912C58.3073 48.0335 58.5952 47.976 58.7373 47.7633C58.8796 47.5502 58.8221 47.2624 58.6093 47.1203C53.9876 44.0345 47.9875 42.1885 42.4487 42.1885C42.1926 42.1885 41.9851 42.3959 41.9851 42.6521C41.9851 42.9082 42.1926 43.1156 42.4487 43.1156Z" fill="#484882"/>
<path d="M51.906 44.6327C52.3047 44.3833 52.7043 44.1284 53.1062 43.8669C55.4997 42.3111 62.2304 37.463 62.5466 37.2472C65.6345 35.1389 67.7584 34.097 69.7594 33.8499C70.0134 33.8186 70.194 33.587 70.1627 33.333C70.1314 33.0789 69.8999 32.8984 69.6458 32.9297C67.4596 33.1997 65.2249 34.2958 62.0239 36.4814C61.6906 36.709 54.9719 41.5485 52.6009 43.0897C52.2034 43.3482 51.8084 43.6001 51.4142 43.847C51.1972 43.9828 51.1314 44.2688 51.2672 44.4858C51.403 44.7027 51.6891 44.7686 51.906 44.6327Z" fill="#484882"/>
<path d="M46.407 43.1954C46.617 43.0447 46.8115 42.9047 47.1443 42.6653C50.1426 40.5089 51.4271 39.5996 53.1758 38.4191C56.1788 36.3916 57.3229 35.6752 59.4575 34.5533C59.6842 34.4344 59.7713 34.1539 59.6522 33.9275C59.5331 33.7008 59.2528 33.6136 59.0261 33.7328C56.8543 34.8741 55.6863 35.6056 52.657 37.6505C50.8982 38.8379 49.6087 39.7507 46.6031 41.9126C46.2703 42.1518 46.0758 42.2918 45.866 42.4425C45.6581 42.5918 45.6106 42.8815 45.7599 43.0894C45.9094 43.2974 46.1991 43.3449 46.407 43.1954Z" fill="#484882"/>
<path d="M72.1677 40.1033C72.3884 40.2331 72.6726 40.1594 72.8024 39.939C72.9324 39.7183 72.8587 39.4341 72.638 39.3041C71.8632 38.8482 70.9889 38.5876 70.0907 38.5452L70.061 38.5447C69.3415 38.557 68.5639 38.8013 67.6944 39.2461C67.0959 39.5523 66.4854 39.9341 65.7217 40.4609C65.698 40.4772 64.321 41.447 63.9858 41.6658C60.4531 43.9774 58.8245 45.023 56.7732 46.2731C56.5546 46.4064 56.4853 46.6915 56.6186 46.9103C56.7516 47.1288 57.037 47.1982 57.2555 47.0649C59.3182 45.8081 60.9526 44.7586 64.4932 42.4421C64.8439 42.2128 66.2367 41.2319 66.2481 41.2242C66.9814 40.7182 67.5611 40.3557 68.1165 40.0715C68.8645 39.6889 69.5103 39.4849 70.0622 39.4721C70.8046 39.5094 71.5271 39.7259 72.1677 40.1033Z" fill="#484882"/>
<path d="M69.489 96.9373C69.2456 95.018 68.738 91.0266 66.9694 89.1561C64.9528 87.0259 61.2048 86.6064 58.1614 86.4974C57.4173 86.4696 56.6663 86.4418 55.9107 86.4186C55.9107 86.7362 55.9269 87.0537 55.9316 87.369C55.9455 88.2266 55.964 89.3855 55.9826 90.7207C56.467 91.5505 56.3279 92.8323 56.2329 93.7154C56.1796 94.1906 56.1147 94.6704 56.0475 95.1432C56.1402 101.462 56.2399 108.675 56.2399 108.784C56.2399 109.04 56.0324 109.248 55.7763 109.248H54.9047C54.8862 109.292 54.87 109.343 54.8491 109.387C54.2951 110.608 53.1872 110.949 51.5786 111.102C50.3445 111.193 49.1061 111.209 47.8699 111.151C47.003 111.125 46.1037 111.1 45.2159 111.13C40.594 111.278 35.8957 111.185 31.3549 111.097L29.1552 111.056H28.5317C27.8966 111.056 27.2476 111.072 26.6148 111.086C24.2645 111.139 21.8353 111.192 19.6611 110.539C19.6196 110.527 19.5767 110.52 19.5336 110.518C15.7415 110.453 12.5034 110.163 11.2865 107.273C10.7581 106.014 11.1614 102.336 12.3412 97.672C13.2985 93.8776 14.3137 91.1703 14.8909 90.1319C14.8746 88.8826 14.8631 87.6935 14.8515 86.6087H13.477C10.8508 86.6087 7.24876 86.6087 5.11861 87.61C1.33349 89.3925 0.860636 93.8684 0.515269 97.1412C0.473547 97.5353 0.431822 97.9108 0.3901 98.2631C-0.0479824 101.772 0.15831 108.093 0.577849 112.523C0.770235 114.532 2.25833 116.185 4.56 116.945C7.09578 117.78 14.972 117.817 15.8621 117.817C19.4594 117.817 23.4416 117.863 27.6555 117.905C32.3423 117.954 37.1589 118 41.5421 118C42.9768 118 44.3699 118 45.7004 117.984L47.5732 117.97C52.5359 117.933 57.6677 117.893 62.5167 117.367C68.3625 116.732 68.775 112.866 69.1227 109.454C69.1645 109.053 69.2062 108.652 69.2572 108.253C69.5353 106.035 69.8436 99.7257 69.5191 97.2641L69.489 96.9373Z" fill="#1A4E66"/>
<path d="M67.3241 97.8181C67.2407 96.4806 66.7214 92.6376 65.0989 91.0058C63.3512 89.2465 59.9995 88.9196 57.371 88.8177L55.9571 88.769C56.0127 92.364 56.1008 98.4926 56.1657 103.022C53.3286 106.7 45.0051 109.28 35.2096 109.146C26.0933 109.018 18.3121 106.573 15.0671 103.207C15.0115 99.072 14.9373 93.3886 14.8863 88.8061C12.2995 88.7898 8.66042 88.7875 6.91272 89.571C3.27594 91.1935 3.20408 95.7389 2.84945 98.4949C2.4554 101.522 2.67097 104.79 3.09978 107.484C3.27826 108.608 3.7372 110.179 5.64947 110.928C7.56173 111.677 15.176 111.772 17.3873 111.772C25.588 111.79 36.897 112.031 45.0815 111.967C50.1091 111.927 56.4392 112.018 61.4019 111.503C66.9648 110.933 66.6426 108.07 67.083 104.723C67.3568 102.432 67.4374 100.123 67.3241 97.8181Z" fill="white"/>
<path d="M15.0764 103.891C15.0463 101.573 15.0069 98.6826 14.9698 95.7343L14.8609 95.8362C13.6347 97.03 13.0066 98.321 12.9857 99.6747C12.9671 101.179 13.7066 102.607 15.0764 103.891Z" fill="#0D323F"/>
<path d="M56.175 103.736C57.1508 102.653 57.6538 101.497 57.67 100.291C57.6863 98.977 57.1184 97.7254 56.073 96.5826C56.1101 99.079 56.1449 101.622 56.175 103.736Z" fill="#0D323F"/>
<path d="M42.0314 109.252H29.7234C31.5425 109.465 33.3713 109.584 35.2029 109.609H35.9446C37.9788 109.613 40.0114 109.494 42.0314 109.252Z" fill="#0D323F"/>
<path d="M2.1132 112.364C2.86907 113.601 5.03491 114.135 8.52103 114.326C9.55342 114.383 10.3053 114.399 12.1013 114.419C12.7157 114.426 13.0319 114.431 13.3416 114.439C15.5762 114.51 18.1635 114.557 21.7852 114.603C22.3236 114.61 22.8862 114.617 23.5556 114.624C23.8154 114.627 24.0792 114.63 24.4343 114.634C24.8715 114.639 25.1023 114.642 25.3056 114.644C27.5132 114.67 28.7767 114.686 30.0358 114.706C38.6442 114.842 47.8504 114.767 58.0663 114.514C60.8717 114.442 63.5352 114.057 65.4308 113.324C65.6695 113.231 65.7882 112.963 65.6959 112.724C65.6037 112.485 65.3353 112.367 65.0965 112.459C63.3194 113.146 60.7509 113.518 58.0431 113.587C47.8391 113.84 38.6449 113.914 30.0504 113.779C28.7899 113.759 27.5252 113.743 25.3163 113.717C25.113 113.715 24.8821 113.712 24.445 113.707C24.0899 113.703 23.8261 113.7 23.5665 113.697C22.8973 113.689 22.335 113.683 21.7968 113.676C18.1804 113.631 15.5983 113.583 13.3689 113.513C13.0507 113.504 12.731 113.499 12.1117 113.492C10.3297 113.472 9.58611 113.456 8.57202 113.4C5.42756 113.228 3.42629 112.734 2.9043 111.88C2.77102 111.662 2.48569 111.593 2.26711 111.726C2.04876 111.86 1.97969 112.145 2.1132 112.364Z" fill="#0D323F"/>
<path d="M14.3462 115.559C13.1031 115.559 11.4424 115.526 10.8631 115.493C10.6074 115.478 10.3886 115.674 10.374 115.929C10.3597 116.185 10.5553 116.404 10.8107 116.418C11.4104 116.452 13.0874 116.486 14.3462 116.486C14.6023 116.486 14.8098 116.279 14.8098 116.023C14.8098 115.767 14.6023 115.559 14.3462 115.559Z" fill="#0D323F"/>
<path d="M20.5303 115.511C19.3966 115.539 18.326 115.556 16.8645 115.559C16.6084 115.56 16.4014 115.768 16.4021 116.024C16.4028 116.28 16.6107 116.487 16.8668 116.486C18.3359 116.483 19.413 116.466 20.5532 116.437C20.8094 116.431 21.0117 116.219 21.0052 115.963C20.999 115.707 20.7864 115.504 20.5303 115.511Z" fill="#0D323F"/>
<path d="M56.3255 98.5391C56.6004 99.076 56.7418 99.6712 56.7383 100.275C56.6758 104.966 47.0609 108.839 35.2113 108.673C23.356 108.507 13.8477 104.371 13.9078 99.6735C13.933 98.8553 14.214 98.0572 14.7116 97.3971C14.8657 97.1927 14.8249 96.902 14.6205 96.7479C14.4163 96.5937 14.1254 96.6345 13.9713 96.839C13.3582 97.6518 13.0121 98.6353 12.9808 99.6534C12.9113 105.091 22.8806 109.427 35.1983 109.6C47.5108 109.772 57.5932 105.711 57.6653 100.283C57.6699 99.5282 57.4935 98.786 57.1507 98.1168C57.0341 97.8887 56.7548 97.7986 56.5269 97.9154C56.2991 98.032 56.2089 98.3113 56.3255 98.5391Z" fill="#0D323F"/>
<path d="M22.4339 16.7971C21.7854 17.6452 19.3305 20.795 19.4955 20.5822C16.699 24.1887 14.9816 26.6162 13.4778 29.2544C12.6072 30.7761 12.3747 32.1708 13.3482 33.0815C14.0556 33.7447 15.1923 33.5057 16.6783 32.6937C17.6326 32.1724 18.64 31.4604 19.5801 30.7082C19.8599 30.4843 20.1598 30.2511 20.5124 29.982C20.8016 29.7613 21.8183 28.9946 21.8558 28.9663C23.9136 27.4075 25.0816 26.3997 26.1099 25.1768C26.1685 25.107 26.2054 25.0217 26.2155 24.9313C26.3212 24.0146 25.907 22.7525 25.0107 20.8235C24.9034 20.5922 24.7887 20.3504 24.6554 20.0739C24.5882 19.9344 24.5198 19.793 24.4289 19.6057C24.3728 19.4903 24.3728 19.4903 24.3172 19.376C24.2722 19.2833 24.2395 19.2161 24.2076 19.15C24.0328 18.7898 23.9104 18.5339 23.7987 18.294C23.5205 17.6965 23.3421 17.2651 23.2461 16.9452C23.1371 16.5829 22.6636 16.4965 22.4339 16.7971Z" fill="#A37F4F"/>
<path d="M60.6292 30.7476C53.7875 31.3866 47.6993 31.9902 43.8242 32.4594C42.0014 32.6745 40.1385 32.856 37.5091 33.0852C36.9982 33.1297 36.7391 33.1519 35.6202 33.2479C33.826 33.4016 32.9083 33.4823 31.8632 33.5798C31.0143 33.6617 29.8867 33.7627 28.5087 33.8814C28.3265 33.8972 28.1402 33.9131 27.9496 33.9294C27.1428 33.9984 26.297 34.0696 25.322 34.151C24.8668 34.1887 23.4851 34.3035 23.2624 34.3223C22.4917 34.3862 21.8116 33.8211 21.7337 33.0518C21.1837 27.6495 20.7291 22.9875 20.6012 21.1842C20.5099 19.9028 20.4097 18.8767 20.1663 16.5917C20.1436 16.3766 20.1332 16.28 20.1207 16.1611C19.8965 14.0504 19.7827 12.8384 19.697 11.5076C19.6242 10.3471 19.4633 8.38544 19.2944 6.50076C19.2174 5.56688 19.8859 4.73661 20.8142 4.61237C23.4916 4.25309 25.6987 3.96104 27.2035 3.77051C28.7182 3.57835 29.9379 3.45805 32.6774 3.21352L32.8763 3.19567C36.5764 2.86513 38.3665 2.66927 40.4575 2.31997C40.7586 2.26967 41.0717 2.21682 41.4657 2.1503C41.6285 2.12295 42.306 2.00821 42.4812 1.97854C44.018 1.71893 44.9896 1.55872 46.003 1.40048C47.7236 1.13181 49.2138 0.927721 50.6198 0.774948C51.3748 0.692454 52.4336 0.567241 53.7562 0.405429C53.8887 0.38918 53.8888 0.389181 54.0213 0.372932C54.8908 0.26617 55.5553 0.183373 56.9143 0.0132861C57.3566 -0.0428071 57.803 0.080158 58.1541 0.354852C58.5053 0.629546 58.7322 1.03318 58.7844 1.47641C59.2394 5.37472 59.7176 9.28873 60.0254 11.4859C60.6127 15.6643 60.9692 19.0028 61.6294 26.0138C61.6964 26.7087 61.7912 27.9091 61.8899 29.2539C61.9492 30.0135 61.3865 30.6797 60.6292 30.7476Z" fill="#BC985E"/>
<path d="M22.1346 5.46956C22.1546 6.34734 22.2415 7.04688 22.4937 8.65875C22.531 8.89819 22.5495 9.01594 22.5706 9.15455C22.7197 10.1288 22.7983 10.7861 22.8305 11.4365C22.8416 11.6419 22.8416 11.6419 22.8525 11.8447C22.9684 13.9901 23.0328 15.0854 23.1235 16.347C23.2315 17.849 23.3548 19.1999 23.5075 20.5074C23.6712 21.9039 23.7792 23.0103 24.0103 25.5456C24.1517 27.0962 24.218 27.8046 24.3065 28.6757C24.4433 30.0129 24.5038 31.3565 24.4873 32.7002C24.4841 32.9564 24.689 33.1664 24.9451 33.1696C25.201 33.1726 25.4112 32.9677 25.4142 32.7116C25.4312 31.3327 25.3693 29.9535 25.2288 28.5815C25.141 27.7153 25.0747 27.0091 24.9337 25.4614C24.7019 22.9182 24.5932 21.8066 24.4284 20.3996C24.2773 19.1069 24.1554 17.7697 24.0483 16.2805C23.9581 15.026 23.8939 13.935 23.7783 11.7946L23.7562 11.3888C23.7224 10.7015 23.6406 10.0173 23.4871 9.01431C23.4658 8.87431 23.4473 8.75564 23.4097 8.5155C23.164 6.9449 23.0803 6.27108 23.0616 5.44846C23.0558 5.19257 22.8435 4.98975 22.5876 4.99554C22.3317 5.00134 22.1288 5.21366 22.1346 5.46956Z" fill="#A37F4F"/>
<path d="M28.0065 8.58618C28.1652 11.726 28.4102 14.8382 28.7938 18.806C29.0755 21.7507 29.101 22.0131 29.2254 23.1968C29.4507 25.3413 29.6716 27.1143 29.9238 28.7192C29.9616 28.9598 30.179 29.1302 30.4217 29.1091L30.5364 29.0991C30.666 29.088 30.666 29.088 30.8607 29.0711C31.21 29.0409 31.5997 29.0071 32.0199 28.9709C33.2203 28.8671 34.4243 28.7635 35.5531 28.6666L35.6412 28.6592C37.2229 28.5234 38.5184 28.4132 39.4277 28.3375C40.5618 28.2443 41.5963 28.1383 43.4455 27.9334C43.6015 27.9163 43.6015 27.9163 43.7573 27.8989C45.8603 27.6657 46.7844 27.5695 47.9369 27.4729C48.6128 27.4161 49.1786 27.376 50.3885 27.2951C50.9411 27.258 51.1463 27.2443 51.4339 27.2244C53.7449 27.0638 55.2568 26.9082 56.757 26.6421C56.9691 26.6046 57.1274 26.4257 57.139 26.2106C57.1749 25.5386 56.9674 23.7146 56.5465 20.6736C56.5185 20.4717 56.4895 20.2638 56.4591 20.047C56.4021 19.6395 56.3432 19.2237 56.2681 18.6973C56.2602 18.641 56.127 17.7073 56.0913 17.4554C55.9598 16.5296 55.8838 15.9796 55.8356 15.5934C55.3597 11.7559 54.9854 8.35671 54.6991 5.17864C54.6757 4.91718 54.44 4.72758 54.1795 4.76049L54.0351 4.77857C53.8719 4.7992 53.7808 4.81079 53.6269 4.83026C53.1874 4.88589 52.6979 4.94801 52.1705 5.015C50.6637 5.20669 49.157 5.39953 47.7505 5.58149C47.6235 5.59795 47.6235 5.59795 47.4967 5.6144C45.8473 5.82788 44.4614 6.0103 43.4179 6.15169C42.0195 6.34848 40.7639 6.48617 38.2126 6.73882C37.0539 6.85355 36.8682 6.87186 36.3741 6.92239C32.8448 7.28329 30.5402 7.6078 28.365 8.11101C28.1462 8.16177 27.9951 8.36181 28.0065 8.58618Z" fill="#F2F2F2"/>
<path d="M49.4793 14.7363C49.588 15.1046 49.6455 15.679 49.652 16.4096C49.6622 17.5254 49.5623 18.8227 49.41 20.1358C49.3641 20.5303 49.8034 20.796 50.1316 20.5723C50.8007 20.1161 51.3348 19.6702 52.3755 18.7393C52.4977 18.6301 52.56 18.5742 52.6194 18.5214C53.1738 18.0261 53.5171 17.7296 53.8819 17.4389C54.04 17.3135 54.2111 17.1988 54.4788 17.0333C54.5238 17.0057 54.6807 16.9093 54.6851 16.9068C55.0824 16.6622 55.3033 16.5111 55.5237 16.3148C55.7149 16.1444 55.7321 15.8514 55.5619 15.6602C55.3916 15.469 55.0986 15.4518 54.9074 15.6222C54.7391 15.7717 54.5525 15.8996 54.1992 16.117C54.196 16.1189 54.0377 16.216 53.9913 16.2448C53.6953 16.4276 53.4988 16.5595 53.305 16.713C52.9221 17.0182 52.5681 17.3237 52.0016 17.8297C51.9421 17.8831 51.8795 17.9391 51.7576 18.0481C51.2024 18.5448 50.7977 18.8976 50.4422 19.1852C50.5335 18.2064 50.5868 17.2588 50.5792 16.401C50.5717 15.5916 50.5071 14.9428 50.3685 14.4737C50.1649 13.7845 49.75 13.3789 49.1326 13.5433C48.0341 13.8353 45.1782 17.4475 43.3659 20.3753C43.3988 19.9729 43.4312 19.5709 43.4623 19.1764C43.4771 18.9901 43.4913 18.8072 43.5052 18.6283C43.5937 17.4841 43.6607 16.5415 43.6994 15.8674C43.7017 15.8201 43.705 15.7684 43.7101 15.6933C43.7117 15.6713 43.7226 15.5195 43.7258 15.4708C43.7467 15.1718 43.7569 14.9449 43.7562 14.714C43.7539 14.0059 43.6503 13.5043 43.3281 13.1907C42.8928 12.7693 42.3406 12.7721 41.7704 13.0683C41.5009 13.2083 41.2329 13.4067 40.9277 13.6747C40.8039 13.7832 40.3728 14.1846 40.2988 14.246C38.0217 16.1064 35.8707 18.1199 33.8625 20.2716C33.5306 20.6337 32.2963 21.9695 32.0462 22.2416C31.858 22.4465 31.6843 22.6359 31.5181 22.8179C30.8049 23.5999 30.2201 24.2566 29.7002 24.8643C29.5338 25.059 29.5565 25.3516 29.751 25.518C29.9457 25.6844 30.2382 25.6617 30.4046 25.4672C30.9174 24.868 31.4959 24.2181 32.2031 23.4428C32.3684 23.2617 32.5413 23.0731 32.7286 22.8693C32.9777 22.5984 34.2125 21.2619 34.543 20.9014C36.5202 18.7831 38.6406 16.7978 40.8876 14.962C40.9891 14.8781 41.4343 14.4637 41.5391 14.3717C41.7932 14.1487 42.0073 13.9899 42.1979 13.8909C42.4505 13.7597 42.5822 13.759 42.6823 13.8559C42.762 13.9334 42.8276 14.2509 42.829 14.7168C42.8297 14.9205 42.8202 15.1282 42.801 15.4068C42.7977 15.4539 42.7868 15.6055 42.7852 15.6287C42.7794 15.7107 42.776 15.7687 42.7736 15.8199C42.7354 16.4807 42.6689 17.4183 42.5808 18.5566C42.5669 18.7351 42.5527 18.9175 42.5379 19.1034C42.4783 19.8598 42.4141 20.6423 42.3502 21.406C42.3279 21.6733 42.307 21.9192 42.2883 22.138C42.2818 22.2147 42.2778 22.2597 42.2709 22.3406L42.2649 22.4115C42.2206 22.9226 42.9162 23.1164 43.1426 22.6563C44.4618 19.9763 48.3359 14.7692 49.3511 14.4449C49.3898 14.4936 49.4367 14.5919 49.4793 14.7363Z" fill="#5F8083"/>
<path d="M43.4503 17.1872C43.5871 16.9709 43.5226 16.6847 43.3061 16.5477C43.0899 16.4109 42.8036 16.4754 42.6666 16.6916C42.4056 17.1044 41.7376 17.2987 41.5849 17.0509C41.4975 16.9093 41.3413 16.8254 41.1753 16.8307C40.7129 16.8458 40.3578 16.9531 39.6411 17.2386C38.585 17.6596 38.2191 17.7022 37.7673 17.3487C37.5656 17.1909 37.2743 17.2264 37.1167 17.428C36.9588 17.6294 36.9943 17.9208 37.1959 18.0786C37.647 18.4319 38.1409 18.5568 38.6852 18.4933C39.063 18.4493 39.3314 18.3603 39.9844 18.1C40.46 17.9106 40.7391 17.8156 40.9878 17.7776C41.6709 18.4356 42.9325 18.0061 43.4503 17.1872Z" fill="#5F8083"/>
<path d="M46.4577 16.96C47.1162 17.5335 47.7339 17.6016 48.4534 17.3114C48.586 17.2579 48.6217 17.241 48.9291 17.0926C49.3539 16.8873 49.5806 16.8096 49.8472 16.8001C50.1031 16.7913 50.3033 16.5767 50.2943 16.3208C50.2855 16.0649 50.0706 15.8646 49.815 15.8736C49.3834 15.8887 49.0596 15.9997 48.5255 16.2577C48.2432 16.3942 48.2112 16.4093 48.1067 16.4515C47.6936 16.6182 47.4454 16.5908 47.0666 16.2607C46.8735 16.0927 46.5808 16.1129 46.4125 16.3059C46.2445 16.499 46.2646 16.7918 46.4577 16.96Z" fill="#5F8083"/>
<path fill-rule="evenodd" clip-rule="evenodd" d="M33.3982 12.2368C34.5322 11.5322 35.6318 12.0067 35.9662 13.0975C36.29 14.1523 35.724 15.2218 34.5152 15.3681C33.7086 15.5004 32.9219 15.0362 32.6489 14.2645C32.3742 13.4887 32.6985 12.6279 33.3982 12.2368ZM34.3711 14.452L34.3966 14.4486C34.9948 14.3795 35.2454 13.9087 35.0799 13.3694C34.9174 12.8397 34.4849 12.6531 33.8695 13.0351C33.5452 13.2164 33.3989 13.6049 33.5227 13.9551C33.6467 14.3053 34.0051 14.5151 34.3711 14.452Z" fill="#FCD400"/>
<path d="M46.5395 13.1529C46.861 13.0555 47.1976 13.0171 47.533 13.0398C47.7884 13.0569 48.0093 12.8639 48.0264 12.6082C48.0438 12.3528 47.8505 12.1319 47.5951 12.1147C47.1482 12.0846 46.6994 12.1358 46.2706 12.2656C46.0256 12.3398 45.8872 12.5987 45.9614 12.8437C46.0356 13.0887 46.2945 13.2273 46.5395 13.1529Z" fill="#91D5DD"/>
<path d="M49.6927 9.80981C49.886 9.77643 50.0731 9.74723 50.4006 9.69832C50.5707 9.67282 50.6553 9.66031 50.7429 9.6471C51.2309 9.57315 51.5644 9.51521 51.8857 9.44405C52.1355 9.38865 52.2934 9.1411 52.238 8.89123C52.1826 8.64136 51.935 8.48351 51.6852 8.53891C51.3892 8.6045 51.073 8.65921 50.6041 8.73037C50.5176 8.74335 50.4342 8.75586 50.2638 8.78136C49.9294 8.8312 49.737 8.8611 49.5344 8.89633C49.2822 8.94014 49.113 9.18004 49.1568 9.43223C49.2006 9.68441 49.4405 9.85362 49.6927 9.80981Z" fill="#91D5DD"/>
<path d="M52.134 10.8072C52.3681 10.7407 52.6073 10.6938 52.8493 10.6667C53.1036 10.6384 53.2869 10.409 53.2584 10.1547C53.2301 9.90019 53.0009 9.71684 52.7464 9.74535C52.4536 9.77804 52.1641 9.83482 51.8806 9.91549C51.6345 9.98549 51.4915 10.2418 51.5615 10.488C51.6315 10.7344 51.8878 10.8772 52.134 10.8072Z" fill="#91D5DD"/>
<path d="M37.5 10.9015C37.8159 10.9015 38.1501 10.8725 38.5715 10.8155C38.6999 10.7981 38.8195 10.7805 39.0177 10.7509C39.5033 10.6781 39.6565 10.6568 39.8753 10.635C40.1301 10.6097 40.3162 10.3828 40.2909 10.128C40.2657 9.8733 40.0385 9.68718 39.7838 9.71244C39.5434 9.73608 39.3828 9.75856 38.88 9.83413C38.6863 9.8631 38.5701 9.88002 38.4473 9.89671C38.0634 9.94863 37.767 9.97436 37.5 9.97436C37.2441 9.97436 37.0364 10.1818 37.0364 10.4379C37.0364 10.6938 37.2441 10.9015 37.5 10.9015Z" fill="#91D5DD"/>
<path d="M30.3403 18.0045C30.8599 17.9676 31.3733 17.8698 31.8701 17.7131C32.1141 17.6359 32.2497 17.3756 32.1728 17.1315C32.0956 16.8872 31.8353 16.7519 31.591 16.8288C31.1636 16.9637 30.7218 17.0479 30.2744 17.0796C30.0192 17.0979 29.8268 17.3195 29.8449 17.575C29.8632 17.8304 30.0848 18.0228 30.3403 18.0045Z" fill="#91D5DD"/>
<path d="M29.511 13.438C29.4424 13.6846 29.5868 13.9403 29.8334 14.0089C30.0721 14.0754 30.328 14.0381 30.538 13.9062C30.7548 13.7699 30.8201 13.4836 30.6838 13.2669C30.5512 13.056 30.2766 12.9883 30.0622 13.1107C29.8218 13.0548 29.5777 13.1978 29.511 13.438Z" fill="#91D5DD"/>
<path d="M53.0969 14.8834C53.6949 14.9015 54.2927 14.8422 54.8754 14.707C55.1248 14.6491 55.2801 14.3999 55.2222 14.1505C55.1642 13.9011 54.9153 13.746 54.6659 13.8037C54.161 13.921 53.6432 13.9723 53.1252 13.9565C52.8693 13.9488 52.6556 14.15 52.6477 14.4059C52.6398 14.6618 52.841 14.8755 53.0969 14.8834Z" fill="#91D5DD"/>
<path d="M28.9036 29.4932C28.4715 29.8513 28.1269 30.167 27.4102 30.8466L27.3729 30.8818C26.9188 31.3125 26.7062 31.5111 26.4464 31.7445C26.2561 31.9156 26.2403 32.2086 26.4114 32.3991C26.5825 32.5897 26.8757 32.6052 27.066 32.4341C27.3339 32.1935 27.5506 31.9909 28.0108 31.5547L28.0481 31.5195C28.7499 30.854 29.0842 30.5478 29.4951 30.2071C29.6924 30.0437 29.7197 29.7516 29.5563 29.5544C29.3929 29.3573 29.1006 29.33 28.9036 29.4932Z" fill="#A37F4F"/>
<path d="M27.2612 7.06795C26.9084 6.68155 26.5009 6.37397 25.8153 5.93241C25.7789 5.90877 25.4096 5.67304 25.3053 5.60512C25.1148 5.48111 24.9665 5.38005 24.8341 5.2827C24.6278 5.13088 24.3376 5.17515 24.186 5.38121C24.0342 5.5875 24.0782 5.87771 24.2845 6.0293C24.4336 6.13917 24.5956 6.2495 24.7998 6.38231C24.9078 6.45254 25.2796 6.69013 25.3132 6.71169C25.9356 7.11268 26.2925 7.38225 26.5767 7.69308C26.7494 7.88222 27.0426 7.89544 27.2315 7.72275C27.4207 7.55007 27.4339 7.25686 27.2612 7.06795Z" fill="#A37F4F"/>
<path d="M55.8452 4.14785C56.0582 3.76563 56.3145 3.42467 56.8507 2.77751C57.3152 2.21635 57.441 2.06035 57.6381 1.78754C57.7878 1.57992 57.741 1.29016 57.5335 1.14029C57.3258 0.990437 57.0361 1.03723 56.8864 1.24483C56.7065 1.49402 56.586 1.64337 56.1365 2.18599C55.5647 2.87649 55.2849 3.24874 55.0353 3.69656C54.9106 3.92024 54.991 4.20256 55.2147 4.32703C55.4384 4.45173 55.7207 4.37153 55.8452 4.14785Z" fill="#A37F4F"/>
<path d="M57.9296 27.7689C58.0105 27.8305 58.1345 27.9209 58.3395 28.0684C58.3587 28.0823 58.7822 28.3861 58.9127 28.4802L58.9502 28.5071C59.4713 28.8833 59.7983 29.1299 59.8799 29.2106C60.0619 29.3907 60.3553 29.3893 60.5354 29.2074C60.7155 29.0256 60.7141 28.732 60.5322 28.5519C60.3989 28.4197 60.0772 28.1773 59.4928 27.7554L59.4551 27.7281C59.3234 27.6333 58.8992 27.3289 58.8809 27.3157C58.683 27.1734 58.5629 27.0858 58.4913 27.0313C58.2875 26.8763 57.9966 26.9157 57.8416 27.1194C57.6865 27.3231 57.7259 27.6138 57.9296 27.7689Z" fill="#A37F4F"/>
</svg>
